<?xml version="1.0" standalone="no"?>
<!DOCTYPE svg PUBLIC "-//W3C//DTD SVG 20010904//EN"
 "http://www.w3.org/TR/2001/REC-SVG-20010904/DTD/svg10.dtd">
<svg version="1.0" xmlns="http://www.w3.org/2000/svg" viewBox="0 0 250.000000 250.000000"
 preserveAspectRatio="xMidYMid meet">

<g transform="translate(0.000000,250.000000) scale(0.100000,-0.100000)"
fill="currentColor" stroke="currentColor">
<path d="M1125 2490 c-550 -50 -1006 -475 -1106 -1030 -19 -104 -16 -343 6
-445 109 -521 493 -897 1015 -996 36 -7 130 -13 210 -13 425 -1 800 200 1036
555 336 505 259 1192 -180 1595 -208 191 -469 309 -741 334 -111 10 -125 10
-240 0z m326 -85 c380 -71 698 -314 859 -657 172 -368 140 -811 -83 -1143 -22
-33 -41 -61 -42 -63 -1 -2 -31 27 -66 63 -75 78 -176 143 -274 176 l-70 24
-525 0 -525 0 -70 -24 c-38 -13 -90 -35 -115 -49 -68 -38 -164 -117 -191 -157
-13 -19 -26 -35 -29 -35 -3 0 -24 28 -47 62 -140 216 -200 436 -190 702 8 223
69 411 194 599 134 201 366 380 594 458 170 57 410 75 580 44z"/>
<path d="M1105 2026 c-241 -63 -414 -273 -432 -522 -15 -213 104 -438 287
-541 182 -103 431 -96 603 17 300 195 353 610 113 877 -55 61 -152 125 -231
154 -75 27 -264 35 -340 15z"/>
</g>
</svg>
