<?xml version="1.0" standalone="no"?>
<!DOCTYPE svg PUBLIC "-//W3C//DTD SVG 20010904//EN"
 "http://www.w3.org/TR/2001/REC-SVG-20010904/DTD/svg10.dtd">
<svg version="1.0" xmlns="http://www.w3.org/2000/svg" viewBox="0 0 250.000000 250.000000"
 preserveAspectRatio="xMidYMid meet">

<g transform="translate(0.000000,250.000000) scale(0.100000,-0.100000)"
fill="currentColor" stroke="currentColor">
<path d="M1135 2377 c-72 -24 -128 -59 -186 -113 -213 -204 -170 -558 86 -709
56 -33 58 -36 35 -42 -60 -16 -200 -96 -257 -148 -108 -97 -189 -244 -213
-385 -7 -41 -10 -189 -8 -404 l3 -339 85 -29 c197 -67 387 -98 607 -98 218 0
379 23 581 82 l74 21 -5 376 c-4 400 -7 420 -59 544 -57 135 -184 268 -321
336 -46 23 -90 41 -99 41 -35 0 -24 17 28 44 69 36 144 118 185 202 28 56 34
80 37 156 10 202 -87 364 -268 446 -45 20 -74 26 -160 28 -69 3 -119 -1 -145
-9z m270 -139 c61 -32 129 -103 158 -166 17 -36 22 -66 22 -132 0 -77 -3 -90
-33 -147 -106 -194 -362 -234 -519 -81 -97 95 -124 251 -63 374 36 75 100 135
174 164 73 29 191 23 261 -12z m5 -845 c187 -51 350 -223 389 -411 7 -32 11
-179 11 -367 l0 -313 -87 -21 c-161 -37 -236 -45 -433 -45 -212 0 -318 14
-484 63 l-91 26 0 315 c0 297 1 319 22 385 51 163 189 306 348 360 97 34 221
37 325 8z"/>
<path d="M400 1891 c-97 -31 -187 -116 -215 -202 -10 -30 -17 -81 -17 -122 1
-90 42 -179 107 -233 l43 -37 -59 -29 c-106 -53 -179 -158 -219 -315 -23 -89
-43 -351 -33 -442 5 -57 11 -70 46 -108 65 -71 180 -116 345 -136 42 -5 42 -5
42 28 0 18 3 46 6 62 l6 30 -62 7 c-90 10 -180 41 -222 76 l-38 31 0 112 c0
207 37 372 104 460 77 102 212 146 338 111 14 -4 20 5 29 40 10 40 19 51 67
84 60 40 115 111 132 170 16 57 12 161 -7 216 -23 64 -92 140 -157 173 -40 21
-68 27 -131 29 -44 2 -91 0 -105 -5z m177 -136 c189 -95 124 -375 -87 -375
-211 0 -276 280 -87 375 28 14 67 25 87 25 20 0 59 -11 87 -25z"/>
<path d="M1915 1887 c-68 -23 -101 -44 -148 -97 -132 -147 -100 -378 67 -485
44 -28 53 -39 64 -79 11 -44 13 -46 40 -39 15 4 52 7 83 7 159 -3 267 -98 314
-279 17 -66 35 -243 35 -347 0 -65 -1 -67 -37 -98 -43 -35 -129 -64 -222 -75
l-63 -7 6 -30 c3 -17 6 -45 6 -63 0 -33 0 -33 43 -28 161 19 280 67 347 139
l40 44 0 137 c0 387 -77 595 -251 682 l-59 30 34 26 c102 77 145 239 99 368
-24 69 -99 148 -165 177 -64 28 -175 36 -233 17z m203 -143 c164 -118 91 -364
-108 -364 -141 0 -240 145 -186 274 18 43 81 104 120 116 53 16 131 5 174 -26z"/>
</g>
</svg>
