<?xml version="1.0" standalone="no"?>
<!DOCTYPE svg PUBLIC "-//W3C//DTD SVG 20010904//EN"
 "http://www.w3.org/TR/2001/REC-SVG-20010904/DTD/svg10.dtd">
<svg version="1.0" xmlns="http://www.w3.org/2000/svg" viewBox="0 0 1320.000000 350.000000"
 preserveAspectRatio="xMidYMid meet">

<g transform="translate(0.000000,350.000000) scale(0.100000,-0.100000)"
fill="currentColor" stroke="currentColor">
<path d="M1700 2374 c-58 -6 -123 -16 -145 -22 -159 -42 -253 -79 -351 -139
-39 -23 -75 -43 -80 -43 -20 -1 -74 -59 -121 -130 -109 -161 -152 -281 -187
-515 -14 -91 -16 -177 -14 -507 l3 -396 292 218 292 219 5 113 c3 62 6 160 6
218 0 101 1 108 37 178 60 120 168 196 303 213 37 4 190 9 341 10 153 2 283 7
294 12 24 12 766 569 763 573 -2 1 -302 4 -668 6 -459 2 -698 0 -770 -8z"/>
<path d="M2188 1647 c-91 -67 -212 -156 -269 -199 -165 -121 -152 -93 -150
-320 1 -212 -6 -251 -61 -339 -57 -94 -147 -149 -273 -169 -44 -7 -197 -14
-340 -15 -143 -2 -269 -4 -281 -4 -12 -1 -51 -23 -87 -51 -36 -27 -70 -50 -74
-51 -4 0 -42 -27 -83 -60 -79 -63 -200 -157 -256 -199 -217 -163 -282 -215
-278 -222 7 -11 1235 -10 1379 2 300 25 546 126 701 288 40 42 124 156 124
168 0 4 10 27 23 53 22 42 35 81 43 121 1 8 12 55 23 104 31 135 50 454 44
754 -3 139 -9 255 -13 257 -4 2 -81 -51 -172 -118z"/>
<path d="M7447 1726 c-16 -7 -42 -26 -59 -42 -91 -85 -75 -246 33 -319 38 -26
53 -30 109 -30 56 0 71 4 110 30 92 62 121 186 65 275 -47 74 -67 85 -180 94
-27 2 -63 -2 -78 -8z"/>
<path d="M3515 1711 c-102 -26 -163 -58 -223 -118 -71 -70 -108 -153 -123
-273 -20 -165 22 -292 129 -392 64 -60 107 -87 291 -180 157 -79 201 -110 228
-162 29 -55 -9 -143 -74 -173 -89 -39 -378 -7 -535 61 -21 9 -41 16 -45 16 -4
0 -17 -28 -27 -63 -10 -34 -36 -116 -58 -181 -21 -66 -38 -123 -38 -127 0 -4
19 -14 43 -22 176 -60 261 -72 527 -72 233 0 236 0 315 28 241 86 369 253 390
512 22 261 -88 391 -460 541 -117 47 -181 94 -196 142 -15 51 1 89 46 107 42
18 228 20 392 4 125 -12 163 -8 163 19 0 10 4 22 9 27 6 6 14 35 20 65 5 30
17 84 26 120 8 36 18 79 21 96 l6 31 -58 5 c-33 3 -203 5 -379 6 -278 1 -329
-1 -390 -17z"/>
<path d="M9405 1234 c-119 -29 -210 -66 -330 -134 -23 -13 -41 -18 -43 -12
-33 100 -199 162 -355 133 -64 -12 -175 -53 -227 -86 -67 -41 -72 -41 -64 10
l6 45 -223 -2 -224 -3 -11 -75 c-14 -91 -31 -199 -89 -562 -45 -287 -74 -478
-75 -490 0 -5 99 -8 219 -8 201 0 220 2 224 18 6 19 18 92 72 442 9 58 23 141
31 186 8 44 14 92 14 106 0 43 55 72 160 84 46 5 59 3 80 -14 l24 -20 -12 -88
c-12 -88 -26 -175 -57 -369 -30 -185 -44 -270 -51 -308 l-7 -37 225 0 225 0
12 83 c7 45 19 120 27 167 27 175 43 278 59 375 26 172 24 167 78 187 26 10
72 21 101 24 46 6 56 4 75 -15 27 -27 26 -41 -4 -230 -34 -206 -54 -331 -90
-563 l-4 -28 223 0 224 0 6 48 c7 44 29 186 61 387 8 50 21 137 30 195 8 58
20 128 25 155 27 136 5 268 -53 322 -55 51 -212 94 -282 77z"/>
<path d="M10470 1220 c-76 -10 -156 -27 -177 -39 -10 -6 -34 -17 -54 -26 -157
-69 -275 -225 -324 -425 -26 -105 -26 -303 -1 -385 48 -153 160 -256 332 -302
165 -44 734 -3 734 52 0 6 -9 43 -21 81 -11 38 -27 94 -35 124 -9 30 -18 61
-20 69 -3 9 -12 11 -27 7 -12 -4 -87 -14 -167 -23 -224 -25 -337 -2 -369 76
-7 16 -11 42 -9 57 l3 29 125 11 c233 21 407 64 475 117 68 53 95 81 127 130
31 49 33 56 31 133 -2 89 -18 134 -70 190 -34 38 -125 89 -173 99 -19 4 -44
13 -55 19 -22 14 -233 18 -325 6z m164 -280 c35 -13 43 -51 19 -92 -22 -39
-84 -63 -206 -79 -101 -14 -109 -8 -73 64 24 50 68 95 106 110 25 9 127 8 154
-3z"/>
<path d="M5010 1200 c-246 -56 -401 -188 -477 -405 -42 -120 -48 -158 -48
-310 0 -119 4 -160 18 -200 59 -165 191 -255 371 -255 96 0 149 15 256 71 45
23 83 39 87 36 3 -4 1 -24 -5 -47 l-10 -40 223 0 222 0 12 83 c7 45 19 120 27
167 7 47 20 129 28 183 9 53 23 141 31 195 9 53 20 129 25 167 5 39 12 79 14
90 8 33 36 228 33 230 -1 1 -27 7 -57 13 -202 43 -608 55 -750 22z m324 -285
c-1 -11 -9 -72 -19 -135 -32 -216 -46 -305 -52 -349 -5 -38 -10 -45 -42 -58
-20 -9 -69 -16 -111 -17 -64 0 -80 3 -107 23 -47 35 -63 85 -63 194 0 104 19
179 64 250 55 87 120 117 246 114 78 -2 85 -4 84 -22z"/>
<path d="M6440 1200 c-86 -20 -93 -22 -180 -63 -92 -44 -196 -150 -243 -248
-52 -108 -77 -221 -77 -355 0 -312 167 -482 503 -514 161 -16 443 16 484 54
13 12 12 22 -32 176 -39 139 -45 151 -65 145 -55 -18 -164 -35 -221 -35 -92 0
-165 37 -197 100 -21 40 -23 55 -19 130 6 100 31 167 84 222 57 58 115 71 307
67 l159 -4 8 25 c4 14 15 61 24 105 9 44 24 104 32 134 8 29 13 55 11 56 -2 2
-47 8 -100 14 -147 17 -388 12 -478 -9z"/>
<path d="M11300 1201 c0 -18 41 -95 55 -104 8 -4 37 -51 66 -105 58 -108 91
-170 138 -255 18 -33 30 -65 26 -75 -3 -9 -30 -44 -60 -77 -30 -33 -55 -64
-55 -69 0 -7 -55 -83 -70 -96 -3 -3 -70 -87 -148 -188 l-142 -182 253 0 252 0
24 43 c14 23 57 93 97 155 70 106 75 112 107 112 31 0 35 -3 46 -42 7 -24 20
-61 30 -83 10 -22 28 -73 41 -112 l24 -73 244 0 243 0 -34 68 c-19 37 -45 90
-58 117 -12 28 -26 52 -30 55 -3 3 -43 81 -88 174 -92 190 -91 168 -10 261 25
28 58 68 74 90 33 44 36 49 122 150 51 60 106 130 162 206 13 18 6 19 -235 19
l-249 0 -84 -140 c-83 -139 -106 -165 -134 -154 -14 5 -37 46 -37 65 0 6 -6
25 -14 42 -8 18 -26 67 -41 109 l-27 77 -207 4 c-113 3 -223 8 -243 12 -26 5
-38 4 -38 -4z"/>
<path d="M7237 1073 c-10 -65 -25 -156 -32 -203 -8 -47 -21 -130 -30 -185 -9
-55 -22 -140 -30 -190 -8 -49 -22 -137 -31 -195 -9 -58 -22 -138 -29 -178
l-13 -72 224 0 224 0 4 23 c3 12 7 40 11 62 7 43 26 168 50 320 8 52 22 138
30 190 8 52 22 137 30 187 15 100 39 247 50 316 l8 42 -224 0 -224 0 -18 -117z"/>
<path d="M12899 1170 c-89 -47 -131 -154 -95 -241 68 -161 290 -172 369 -19
31 59 34 101 11 156 -34 82 -99 124 -191 124 -37 -1 -71 -8 -94 -20z m184 -36
c15 -10 36 -37 47 -60 38 -76 20 -160 -44 -209 -51 -39 -130 -40 -179 -2 -95
72 -87 229 15 281 43 22 125 17 161 -10z"/>
<path d="M12933 1093 c-9 -3 -13 -33 -13 -99 0 -87 1 -94 20 -94 16 0 20 7 20
34 0 19 5 38 10 41 20 12 49 -7 62 -41 7 -21 19 -34 30 -34 22 0 23 21 3 60
-13 26 -13 32 3 60 17 31 17 31 -11 56 -27 23 -88 32 -124 17z m96 -37 c6 -7
9 -20 5 -29 -6 -17 -49 -31 -64 -22 -11 7 -13 48 -3 58 11 12 50 8 62 -7z"/>
</g>
</svg>
